<svg width="500" height="200" viewBox="0 0 500 200" fill="none" xmlns="http://www.w3.org/2000/svg">
<path d="M0 162.57C0 155.943 5.37258 150.57 12 150.57H181.185C187.813 150.57 193.185 155.943 193.185 162.57V188C193.185 194.627 187.813 200 181.185 200H12C5.3726 200 0 194.627 0 188L0 162.57Z" fill="#F0F0F0"/>
<path d="M86.5186 105.838C86.5186 99.2105 91.8911 93.8379 98.5186 93.8379H125.482C132.109 93.8379 137.482 99.2105 137.482 105.838V134.583C137.482 141.211 132.109 146.583 125.482 146.583H98.5185C91.8911 146.583 86.5186 141.211 86.5186 134.583V105.838Z" fill="#F0F0F0"/>
<path d="M0 12C0 5.37258 5.37258 0 12 0L70.3704 0C76.9978 0 82.3704 5.37258 82.3704 12L82.3704 134.277C82.3704 140.904 76.9978 146.277 70.3704 146.277H12C5.37259 146.277 0 140.904 0 134.277L0 12Z" fill="#F0F0F0"/>
<path d="M141.63 105.838C141.63 99.2105 147.002 93.8379 153.63 93.8379H180.593C187.22 93.8379 192.593 99.2105 192.593 105.838V134.583C192.593 141.211 187.22 146.583 180.593 146.583H153.63C147.002 146.583 141.63 141.211 141.63 134.583V105.838Z" fill="#F0F0F0"/>
<path d="M85.9259 12C85.9259 5.3726 91.2985 0 97.9259 0L181.185 0C187.813 0 193.185 5.37258 193.185 12V77.5448C193.185 84.1722 187.813 89.5448 181.185 89.5448H97.9259C91.2985 89.5448 85.9259 84.1722 85.9259 77.5448V12Z" fill="#F0F0F0"/>
<path d="M246.777 128.938C245.995 131.094 244.683 132.172 242.839 132.172C240.995 132.172 239.808 131.594 239.277 130.438C238.964 129.782 238.808 128.375 238.808 126.219V123.032L239.089 114.688C239.12 113.532 239.136 111.422 239.136 108.36V101.282L239.042 97.9535L238.995 94.5785C238.995 93.4847 238.98 92.391 238.948 91.2972L238.808 86.4222V80.1879C238.808 74.8129 239.089 71.5941 239.652 70.5316C240.214 69.4691 241.495 68.9379 243.495 68.9379C245.495 68.9379 246.87 70.4379 247.62 73.4379C248.12 75.5316 248.464 79.4691 248.652 85.2504C248.839 91.0316 249.542 93.9222 250.761 93.9222C252.198 93.9222 255.683 90.5941 261.214 83.9379C266.745 77.2816 270.027 73.4691 271.058 72.5004C273.495 70.2191 275.761 69.0785 277.855 69.0785C279.948 69.0785 280.995 69.5941 280.995 70.6254C280.995 71.3129 278.105 75.5004 272.323 83.1879C266.573 90.8754 263.698 95.641 263.698 97.4847C263.698 98.016 267.12 103.75 273.964 114.688C280.839 125.625 284.277 131.203 284.277 131.422C284.277 132.391 283.511 132.875 281.98 132.875H280.62C278.589 132.875 276.636 131.953 274.761 130.11C272.917 128.235 270.511 124.922 267.542 120.172C264.605 115.391 262.448 112.157 261.073 110.469C258.48 107.25 256.323 105.641 254.605 105.641C252.917 105.641 251.386 107.032 250.011 109.813C249.105 111.657 248.48 114.938 248.136 119.657C247.792 124.344 247.339 127.438 246.777 128.938ZM301.714 100.063V103.157C301.714 106.719 302.12 110 302.933 113C304.495 118.688 307.136 122.594 310.855 124.719C313.042 126 315.417 126.641 317.98 126.641H319.433C321.933 126.641 324.183 125.985 326.183 124.672C332.183 120.766 335.198 112.969 335.23 101.282V98.1879C335.23 91.2504 333.855 85.5785 331.105 81.1722C329.886 79.2035 328.292 77.6254 326.323 76.4379C324.386 75.2504 322.37 74.6566 320.277 74.6566H318.12C315.683 74.6566 313.402 75.3441 311.277 76.7191C309.152 78.0941 307.48 79.7035 306.261 81.5472C305.042 83.391 303.98 85.9535 303.073 89.2347C302.167 92.4847 301.714 96.0941 301.714 100.063ZM345.636 98.0004V101.188C345.636 106.032 345.042 110.625 343.855 114.969C342.667 119.282 340.948 122.782 338.698 125.469C336.448 128.125 333.636 130.297 330.261 131.985C326.917 133.672 323.495 134.516 319.995 134.516H316.855C313.542 134.485 310.292 133.75 307.105 132.313C300.605 129.344 296.183 123.61 293.839 115.11C292.839 111.485 292.339 107.157 292.339 102.125L292.386 101.094C292.417 96.5004 293.027 91.9691 294.214 87.5004C296.652 78.4691 301.308 72.3754 308.183 69.2191C311.339 67.7816 314.745 67.0629 318.402 67.0629H320.464C323.714 67.0629 327.011 67.7816 330.355 69.2191C336.73 72.0004 341.183 77.3129 343.714 85.1566C344.995 89.0941 345.636 93.3754 345.636 98.0004ZM421.152 127.391C421.152 129.61 420.105 130.719 418.011 130.719C417.323 130.719 416.448 130.157 415.386 129.032C414.355 127.907 413.62 126.188 413.183 123.875C412.745 121.563 412.245 115.063 411.683 104.375C411.152 93.6566 410.464 88.2972 409.62 88.2972C408.808 88.2972 406.214 93.2191 401.839 103.063C397.495 112.907 394.964 118.36 394.245 119.422C392.839 121.485 391.292 122.516 389.605 122.516C387.917 122.516 386.573 121.672 385.573 119.985C384.573 118.297 383.23 115.235 381.542 110.797C375.855 95.891 372.402 88.4379 371.183 88.4379C370.464 88.4379 369.339 94.3129 367.808 106.063C366.308 117.782 365.527 123.782 365.464 124.063C364.495 127.782 363.245 129.641 361.714 129.641C359.714 129.641 358.714 128.532 358.714 126.313C358.714 125.594 358.87 123.141 359.183 118.953C359.527 114.735 359.745 111.25 359.839 108.5C359.933 105.719 360.089 102.078 360.308 97.5785C360.558 93.0472 360.683 86.7347 360.683 78.641C360.683 76.391 361.073 74.5941 361.855 73.2504C362.948 71.3441 364.542 70.391 366.636 70.391C368.73 70.391 370.745 71.7816 372.683 74.5629C374.652 77.3129 377.917 83.1722 382.48 92.141C387.073 101.078 389.558 105.547 389.933 105.547C390.339 105.547 392.714 101.407 397.058 93.1254C401.433 84.8129 404.339 79.5316 405.777 77.2816C408.745 72.6566 411.433 70.3441 413.839 70.3441C416.808 70.3441 418.73 71.5941 419.605 74.0941C420.48 76.5629 420.917 83.3441 420.917 94.4379L420.589 113.047C420.589 116.547 420.683 119.625 420.87 122.282C421.058 124.907 421.152 126.61 421.152 127.391ZM467.886 105.313V104.985C467.886 104.797 467.683 103.828 467.277 102.078C466.902 100.297 466.62 99.0941 466.433 98.4691C466.277 97.8441 465.73 95.4847 464.792 91.391C463.886 87.266 462.87 84.0004 461.745 81.5941C460.62 79.1566 459.948 77.9379 459.73 77.9379C459.542 77.9379 458.902 79.1722 457.808 81.641C452.433 93.9222 449.745 101.844 449.745 105.407V105.688C449.745 106.563 451.183 107 454.058 107H456.073L456.495 106.953L460.573 107H462.589L462.964 106.953H463.714L465.214 106.86C466.995 106.86 467.886 106.344 467.886 105.313ZM485.042 129.219V130.063C485.042 131.282 484.089 131.891 482.183 131.891C480.308 131.891 478.683 131.11 477.308 129.547C475.964 127.985 474.605 125.532 473.23 122.188C471.855 118.844 470.839 116.86 470.183 116.235C468.714 114.86 465.714 114.172 461.183 114.172C454.245 114.172 449.792 114.797 447.823 116.047C446.636 116.797 445.261 119.032 443.698 122.75C442.136 126.469 441.245 128.516 441.027 128.891C439.777 130.891 438.198 131.891 436.292 131.891H435.495C434.027 131.891 433.292 131.157 433.292 129.688C433.292 128.532 434.339 124.672 436.433 118.11C444.089 94.0785 448.558 80.5004 449.839 77.3754C451.152 74.2504 452.495 71.8285 453.87 70.1097C455.245 68.3597 457.042 67.4847 459.261 67.4847C461.511 67.4847 463.386 68.3441 464.886 70.0629C466.386 71.7504 468.323 75.4847 470.698 81.266C475.23 92.2347 478.98 104.063 481.948 116.75C482.261 118.063 482.855 120.235 483.73 123.266C484.605 126.297 485.042 128.282 485.042 129.219Z" fill="#F0F0F0"/>
</svg>
